# AST/ASF file generated using VICON BodyLanguage
# -----------------------------------------------
:version 1.10
:name VICON
:units
  mass 1.0
  length 0.45
  angle deg
:documentation
   .ast/.asf automatically generated from VICON data using
   VICON BodyBuilder and BodyLanguage model FoxedUp or BRILLIANT.MOD
:root
   order TX TY TZ RX RY RZ
   axis XYZ
   position 0 0 0  
   orientation 0 0 0 
:bonedata
  begin
     id 1 
     name lhipjoint
     direction 0.627457 -0.725269 0.283342 
     length 2.53237 
     axis 0 0 0  XYZ
  end
  begin
     id 2 
     name lfemur
     direction 0.34202 -0.939693 0  
     length 7.32496  
     axis 0 0 20  XYZ
    dof rx ry rz
    limits (-160.0 20.0)
           (-70.0 70.0)
           (-60.0 70.0)
  end
  begin
     id 3 
     name ltibia
     direction 0.34202 -0.939693 0   
     length 7.69674   
     axis 0 0 20   XYZ
    dof rx
    limits (-10.0 170.0)
  end
  begin
     id 4 
     name lfoot
     direction 0.127289 -0.349722 0.928166   
     length 1.8612   
     axis -90 7.62852e-016 20   XYZ
    dof rx rz
    limits (-45.0 90.0)
           (-70.0 20.0)
  end
  begin
     id 5 
     name ltoes
     direction 1.53561e-011 -4.21864e-011 1   
     length 0.925608   
     axis -90 7.62852e-016 20   XYZ
    dof rx
    limits (-90.0 20.0)
  end
  begin
     id 6 
     name rhipjoint
     direction -0.609094 -0.738725 0.288599   
     length 2.48624  
     axis 0 0 0  XYZ 
  end
  begin
     id 7 
     name rfemur
     direction -0.34202 -0.939693 0   
     length 7.44259   
     axis 0 0 -20   XYZ
    dof rx ry rz
    limits (-160.0 20.0)
           (-70.0 70.0)
           (-70.0 60.0)
  end
  begin
     id 8 
     name rtibia
     direction -0.34202 -0.939693 0   
     length 7.7781   
     axis 0 0 -20   XYZ
    dof rx
    limits (-10.0 170.0)
 end
 begin
     id 9 
     name rfoot
     direction -0.107015 -0.294021 0.949789   
     length 2.14741  
     axis -90 -7.62852e-016 -20   XYZ
    dof rx rz
    limits (-45.0 90.0)
           (-20.0 70.0)
  end
  begin
     id 10 
     name rtoes
     direction -1.53497e-011 -4.21924e-011 1   
     length 1.0706   
     axis -90 -7.62852e-016 -20   XYZ
    dof rx
    limits (-90.0 20.0)
  end
  begin
     id 11 
     name lowerback
     direction -0.0142066 0.998112 -0.0597545   
     length 1.86627   
     axis 0 0 0   XYZ
    dof rx ry rz
    limits (-20.0 45.0)
           (-30.0 30.0)
           (-30.0 30.0)
  end
  begin
     id 12 
     name upperback
     direction 0.00547294 0.999744 0.0219437   
     length 1.86272   
     axis 0 0 0   XYZ
    dof rx ry rz
    limits (-20.0 45.0)
           (-30.0 30.0)
           (-30.0 30.0)
  end
  begin
     id 13 
     name thorax
     direction 0.0116162 0.998704 0.0495538   
     length 1.8703   
     axis 0 0 0   XYZ
    dof rx ry rz
    limits (-20.0 45.0)
           (-30.0 30.0)
           (-30.0 30.0)
  end
  begin
     id 14 
     name lowerneck
     direction -0.0106574 0.998739 0.0490586   
     length 1.8074   
     axis 0 0 0   XYZ
    dof rx ry rz
    limits (-20.0 45.0)
           (-30.0 30.0)
           (-30.0 30.0)
  end
  begin
     id 15 
     name upperneck
     direction 0.030527 0.976587 -0.212944   
     length 1.80681   
     axis 0 0 0   XYZ
    dof rx ry rz
    limits (-20.0 45.0)
           (-30.0 30.0)
           (-30.0 30.0)
  end
  begin
     id 16
     name head
     direction 0.00869225 0.997035 -0.0764531  
     length 1.8313  
     axis 0 0 0   XYZ
    dof rx ry rz
    limits (-20.0 45.0)
           (-30.0 30.0)
           (-30.0 30.0)
  end
  begin
     id 17 
     name lclavicle
     direction 0.915958 0.399447 0.0382386  
     length 3.78965  
     axis 0 0 0   XYZ
    dof ry rz
    limits (-20.0 10.0)
           (0.0 20.0)
  end
  begin
     id 18 
     name lhumerus
     direction 1 -4.48967e-011 3.19303e-027   
     length 4.78095   
     axis -180 -30 -90   XYZ
    dof rx ry rz
    limits (-60.0 90.0)
           (-90.0 90.0)
           (-90.0 90.0)
  end
  begin
     id 19
     name lradius
     direction 1 -4.48967e-011 -3.77974e-027   
     length 3.58615   
     axis -180 -30 -90   XYZ
    dof rx
    limits (-10.0 170.0)
  end
  begin
     id 20
     name lwrist
     direction 1 -4.48927e-011 1.2807e-027   
     length 1.79307   
     axis 1.91374e-015 90 90   XYZ
    dof ry
    limits (-180.0 0.0)
 end
  begin
     id 21 
     name lhand
     direction 1 -4.49036e-011 2.5614e-027   
     length 0.659812   
     axis -1.63439e-015 90 90   XYZ
    dof rx rz
    limits (-90.0 90.0)
           (-45.0 45.0)
  end
  begin
     id 22 
     name lfingers
     direction 1 -4.49052e-011 5.1228e-027   
     length 0.531957   
     axis -3.26879e-015 90 90   XYZ
    dof rx
    limits (0.0 90.0)
  end
  begin
     id 23
     name lthumb
     direction 0.707107 -6.35012e-011 0.707107   
     length 0.763787   
     axis -90 45 2.85299e-015   XYZ
    dof rx rz
    limits (-45.0 45.0)
           (-45.0 45.0)
  end
  begin
     id 24 
     name rclavicle
     direction -0.895351 0.435135 0.0948887   
     length 3.70497  
     axis 0 0 0   XYZ 
    dof ry rz
    limits (-10.0 20.0)
           (-20.0 0.0)
  end
  begin
     id 25 
     name rhumerus
     direction -1 -4.48971e-011 2.38946e-027  
     length 4.48913   
     axis -180 30 90   XYZ
    dof rx ry rz
    limits (-90.0 60.0)
           (-90.0 90.0)
           (-90.0 90.0)
  end
  begin
     id 26 
     name rradius
     direction -1 -4.4895e-011 4.38668e-027   
     length 3.7051   
     axis -180 30 90   XYZ
    dof rx
    limits (-10.0 170.0)
  end
  begin
     id 27 
     name rwrist
     direction -1 -4.49007e-011 1.2807e-027   
     length 1.85255   
     axis 1.91374e-015 -90 -90   XYZ
    dof ry
    limits (-180.0 0.0)
  end
  begin
     id 28
     name rhand
     direction -1 -4.48851e-011 2.5614e-027   
     length 0.449136   
     axis -1.63439e-015 -90 -90   XYZ
    dof rx rz
    limits (-90.0 90.0)
           (-45.0 45.0)
  end
  begin
     id 29
     name rfingers
     direction -1 -4.49128e-011 5.1228e-027   
     length 0.362105   
     axis -3.26879e-015 -90 -90   XYZ
    dof rx
    limits (0.0 90.0)
  end
  begin
     id 30
     name rthumb
     direction -0.707107 -6.34851e-011 0.707107   
     length 0.519912   
     axis -90 -45 -2.85299e-015   XYZ
    dof rx rz
    limits (-45.0 45.0)
           (-45.0 45.0)
  end
:hierarchy
  begin
    root lhipjoint rhipjoint lowerback
    lhipjoint lfemur
    lfemur ltibia
    ltibia lfoot
    lfoot ltoes
    rhipjoint rfemur
    rfemur rtibia
    rtibia rfoot
    rfoot rtoes
    lowerback upperback
    upperback thorax
    thorax lowerneck lclavicle rclavicle
    lowerneck upperneck
    upperneck head
    lclavicle lhumerus
    lhumerus lradius
    lradius lwrist
    lwrist lhand lthumb
    lhand lfingers
    rclavicle rhumerus
    rhumerus rradius
    rradius rwrist
    rwrist rhand rthumb
    rhand rfingers
  end

#!OML:ASF I:\Actors\actors\Patient Classification 2\Patient 1\Session 1\actor1.ASF
:FULLY-SPECIFIED
:DEGREES
1
root -0.601149 18.7676 4.51443 4.76039 -2.78554 -2.33181
lowerback -2.27734 1.37857 -1.09141
upperback -2.90184 1.85336 0.349546
thorax -1.74515 0.951973 0.981678
lowerneck -8.92057 -3.91832 -2.15044
upperneck 24.4134 -6.12288 4.0176
head 9.32845 -2.64412 1.08824
rclavicle 9.67833e-015 6.36111e-015
rhumerus -50.402 -0.370439 -87.5112
rradius 43.6059
rwrist 14.256
rhand -8.44492 -40.8215
rfingers 7.12502
rthumb 17.4807 -70.0555
lclavicle 9.67833e-015 6.36111e-015
lhumerus -42.279 4.05371 87.4853
lradius 36.9023
lwrist -8.88449
lhand -11.3953 -31.3251
lfingers 7.12502
lthumb 14.6396 -1.86189
rfemur 2.12181 -9.89196 15.4851
rtibia -3.97569e-015
rfoot -7.47084 -1.12885
rtoes -2.65004
lfemur -8.24322 -6.60105 -12.2517
ltibia 21.5262
lfoot -22.4311 11.7632
ltoes -54.2572
2
root -0.601369 18.7669 4.51482 4.73721 -2.76166 -2.27342
lowerback -2.23569 1.37732 -1.13719
upperback -2.91801 1.85145 0.331522
thorax -1.78598 0.952012 0.98741
lowerneck -8.88862 -3.90812 -2.10639
upperneck 24.3778 -6.10684 3.98496
head 9.30676 -2.63713 1.07218
rclavicle -1.69464e-014 1.11319e-014
rhumerus -50.4287 -0.386595 -87.524
rradius 43.6063
rwrist 14.3021
rhand -8.73989 -40.7513
rfingers 7.12502
rthumb 17.1968 -70.0103
lclavicle -1.69464e-014 1.11319e-014
lhumerus -42.3107 3.9691 87.512
lradius 36.9577
lwrist -8.79021
lhand -11.2911 -31.2694
lfingers 7.12502
lthumb 14.7401 -1.81346
rfemur 2.14499 -9.91905 15.4218
rtibia -3.97569e-015
rfoot -7.47612 -1.12596
rtoes -2.8325
lfemur -8.21971 -6.594 -12.3199
ltibia 21.512
lfoot -22.3753 11.7512
ltoes -54.3345
3
root -0.602203 18.7651 4.51513 4.6941 -2.73656 -2.22559
lowerback -2.20463 1.36307 -1.18644
upperback -2.90679 1.83246 0.322198
thorax -1.79264 0.943346 1.00466
lowerneck -8.89881 -3.88328 -2.02523
upperneck 24.3588 -6.0684 3.9151
head 9.29565 -2.61931 1.03869
rclavicle 3.17683e-014 9.93923e-015
rhumerus -50.4345 -0.305671 -87.5827
rradius 43.6299
rwrist 14.266
rhand -9.34522 -40.533
rfingers 7.12502
rthumb 16.6141 -69.8419
lclavicle 3.17683e-014 9.93923e-015
lhumerus -42.3036 3.92282 87.5158
lradius 36.9917
lwrist -8.72178
lhand -11.2805 -31.2162
lfingers 7.12502
lthumb 14.7502 -1.76105
rfemur 2.19291 -9.94463 15.3689
rtibia -3.18055e-015
rfoot -7.5038 -1.11956
rtoes -3.30511
lfemur -8.18746 -6.59384 -12.3729
ltibia 21.5094
lfoot -22.3406 11.7108
ltoes -54.3231
4
root -0.603909 18.764 4.51562 4.65287 -2.70607 -2.22583
lowerback -2.18686 1.36034 -1.18985
upperback -2.88064 1.8288 0.326103
thorax -1.77584 0.941382 1.01049
lowerneck -8.90548 -3.86292 -1.99741
upperneck 24.2971 -6.04157 3.91608
head 9.27343 -2.60493 1.03729
rclavicle -1.49089e-016 3.97569e-016
rhumerus -50.402 -0.282119 -87.6019
rradius 43.6394
rwrist 14.2207
rhand -9.71191 -40.2478
rfingers 7.12502
rthumb 16.2611 -69.5859
lclavicle -1.49089e-016 3.97569e-016
lhumerus -42.2496 3.90944 87.5071
lradius 36.9808
lwrist -8.72478
lhand -11.3863 -31.1741
lfingers 7.12502
lthumb 14.6483 -1.71152
rfemur 2.25281 -9.97138 15.3702
rtibia 6.36111e-015
rfoot -7.55609 -1.10995
rtoes -3.87387
lfemur -8.15648 -6.46558 -12.3592
ltibia 21.5078
lfoot -22.2832 11.566
ltoes -54.3358
5
root -0.606056 18.7633 4.51591 4.60228 -2.67713 -2.21602
lowerback -2.13886 1.37185 -1.19617
upperback -2.86702 1.84362 0.31698
thorax -1.78902 0.948812 1.00367
lowerneck -8.8717 -3.84791 -1.99246
upperneck 24.2069 -6.02837 3.96433
head 9.23647 -2.59511 1.0553
rclavicle -2.01766e-014 0
rhumerus -50.3676 -0.347126 -87.5896
rradius 43.6201
rwrist 14.2255
rhand -9.67078 -40.0477
rfingers 7.12502
rthumb 16.3007 -69.3826
lclavicle -2.01766e-014 0
lhumerus -42.2138 3.86486 87.5007
lradius 36.9548
lwrist -8.73065
lhand -11.4604 -31.1992
lfingers 7.12502
lthumb 14.5769 -1.73144
rfemur 2.32505 -9.99658 15.3623
rtibia 1.59028e-015
rfoot -7.5873 -1.09914
rtoes -4.45739
lfemur -8.10021 -6.40451 -12.3591
ltibia 21.5106
lfoot -22.2761 11.4777
ltoes -54.2991
6
root -0.60764 18.7628 4.51631 4.55524 -2.65837 -2.18937
lowerback -2.09068 1.38835 -1.21967
upperback -2.86931 1.86513 0.305259
thorax -1.81935 0.960085 1.00352
lowerneck -8.83078 -3.84367 -1.98617
upperneck 24.158 -6.02911 3.99738
head 9.21259 -2.59277 1.06641
rclavicle 5.11871e-015 -1.03368e-014
rhumerus -50.3727 -0.385837 -87.5803
rradius 43.614
rwrist 14.2278
rhand -8.69124 -40.2028
rfingers 7.12502
rthumb 17.2436 -69.4577
lclavicle 5.11871e-015 -1.03368e-014
lhumerus -42.2143 3.82042 87.5019
lradius 36.9495
lwrist -8.79519
lhand -11.4277 -31.2203
lfingers 7.12502
lthumb 14.6084 -1.75478
rfemur 2.37964 -10.0134 15.3337
rtibia 1.35174e-014
rfoot -7.57078 -1.10095
rtoes -4.93838
lfemur -8.04821 -6.49194 -12.3888
ltibia 21.5242
lfoot -22.3413 11.4755
ltoes -54.1969
7
root -0.607885 18.7627 4.51769 4.49609 -2.63892 -2.18619
lowerback -2.03872 1.39608 -1.20619
upperback -2.87308 1.87472 0.304487
thorax -1.85213 0.964822 0.993732
lowerneck -8.77859 -3.84535 -1.99892
upperneck 24.1375 -6.03545 4.02648
head 9.19719 -2.59499 1.07893
rclavicle 7.40473e-015 -1.59028e-014
rhumerus -50.405 -0.37685 -87.5857
rradius 43.6235
rwrist 14.2201
rhand -7.79822 -40.4726
rfingers 7.12502
rthumb 18.103 -69.6501
lclavicle 7.40473e-015 -1.59028e-014
lhumerus -42.2228 3.83972 87.4784
lradius 36.9247
lwrist -8.90614
lhand -11.3691 -31.2162
lfingers 7.12502
lthumb 14.6649 -1.75483
rfemur 2.44641 -10.0283 15.32
rtibia 6.36111e-015
rfoot -7.55787 -1.11868
rtoes -5.0611
lfemur -7.99974 -6.55353 -12.4032
ltibia 21.5508
lfoot -22.3649 11.5123
ltoes -54.2909
8
root -0.608306 18.7619 4.51892 4.43176 -2.60795 -2.18864
lowerback -1.98516 1.39413 -1.17137
upperback -2.86489 1.87121 0.297656
thorax -1.87223 0.96236 0.965929
lowerneck -8.74674 -3.84784 -2.02178
upperneck 24.129 -6.04056 4.0512
head 9.18994 -2.5975 1.09132
rclavicle 1.15544e-015 -3.97569e-015
rhumerus -50.4021 -0.355009 -87.6096
rradius 43.6056
rwrist 14.2188
rhand -8.75438 -40.1577
rfingers 7.12502
rthumb 17.1829 -69.418
lclavicle 1.15544e-015 -3.97569e-015
lhumerus -42.2168 3.81244 87.4689
lradius 36.8997
lwrist -8.8655
lhand -11.4356 -31.2098
lfingers 7.12502
lthumb 14.6008 -1.74374
rfemur 2.52297 -10.0538 15.311
rtibia 3.97569e-015
rfoot -7.56075 -1.12997
rtoes -4.89154
lfemur -7.96552 -6.53032 -12.4092
ltibia 21.5922
lfoot -22.3416 11.5299
ltoes -54.4549
9
root -0.609753 18.7606 4.5209 4.35941 -2.55863 -2.1857
lowerback -1.93929 1.39239 -1.15306
upperback -2.84589 1.86831 0.295179
thorax -1.8776 0.960443 0.952212
lowerneck -8.76465 -3.854 -2.04817
upperneck 24.1729 -6.04511 4.04607
head 9.20947 -2.60143 1.09308
rclavicle -1.01256e-014 2.38542e-015
rhumerus -50.38 -0.341343 -87.6214
rradius 43.5873
rwrist 14.181
rhand -9.66858 -39.9073
rfingers 7.12502
rthumb 16.3028 -69.242
lclavicle -1.01256e-014 2.38542e-015
lhumerus -42.2126 3.76727 87.4894
lradius 36.8976
lwrist -8.81156
lhand -11.5084 -31.267
lfingers 7.12502
lthumb 14.5307 -1.79586
rfemur 2.61345 -10.0971 15.2989
rtibia 3.18055e-015
rfoot -7.57253 -1.13883
rtoes -4.90176
lfemur -7.92872 -6.5328 -12.4115
ltibia 21.6424
lfoot -22.3315 11.496
ltoes -54.4155
